PathFileType	4	(x/y/z)	S08_M20_T15
DataRate	CameraRate	NumFrames	NumMarkers	Units	OrigDataRate	OrigDataStartFrame	OrigNumFrames
240	240	7	51	mm	240	319	509
Frame#	Time	Sternum			R.Acromium			L.Acromium			Top.Head			R.ASIS			L.ASIS			R.PSIS			L.PSIS			R.Great.Tro			L.Great.Tro			R.Iliac.Crest			L.Iliac.Crest			V.Sacral			R.Thigh.Upper.Post			R.Thigh.Lower.Ant			R.Thigh.Lower.Post			R.Thigh.Upper.Ant			R.Knee.Lat			R.Knee.Med			R.Shank.Upper.Post			R.Shank.Lower.Ant			R.Shank.Lower.Post			R.Shank.Upper.Ant			R.Ankle.Lat			R.Ankle.Med			R.Heel.Upper			R.Heel.Med			R.Heel.Lat			R.Toe.Lat			R.Toe.Med			R.Toe.Tip			L.Thigh.Upper.Post			L.Thigh.Lower.Ant			L.Thigh.Lower.Post			L.Thigh.Upper.Ant			L.Knee.Lat			L.Knee.Med			L.Shank.Upper.Post			L.Shank.Lower.Ant			L.Shank.Lower.Post			L.Shank.Upper.Ant			L.Ankle.Lat			L.Ankle.Med			L.Heel.Upper			L.Heel.Med			L.Heel.Lat			L.Toe.Lat			L.Toe.Med			L.Toe.Tip			Cervical.Spine			Back			
		X1	Y1	Z1	X2	Y2	Z2	X3	Y3	Z3	X4	Y4	Z4	X5	Y5	Z5	X6	Y6	Z6	X7	Y7	Z7	X8	Y8	Z8	X9	Y9	Z9	X10	Y10	Z10	X11	Y11	Z11	X12	Y12	Z12	X13	Y13	Z13	X14	Y14	Z14	X15	Y15	Z15	X16	Y16	Z16	X17	Y17	Z17	X18	Y18	Z18	X19	Y19	Z19	X20	Y20	Z20	X21	Y21	Z21	X22	Y22	Z22	X23	Y23	Z23	X24	Y24	Z24	X25	Y25	Z25	X26	Y26	Z26	X27	Y27	Z27	X28	Y28	Z28	X29	Y29	Z29	X30	Y30	Z30	X31	Y31	Z31	X32	Y32	Z32	X33	Y33	Z33	X34	Y34	Z34	X35	Y35	Z35	X36	Y36	Z36	X37	Y37	Z37	X38	Y38	Z38	X39	Y39	Z39	X40	Y40	Z40	X41	Y41	Z41	X42	Y42	Z42	X43	Y43	Z43	X44	Y44	Z44	X45	Y45	Z45	X46	Y46	Z46	X47	Y47	Z47	X48	Y48	Z48	X49	Y49	Z49	X50	Y50	Z50	X51	Y51	Z51	

319	1.325	73.495	1183.5	340.11	-29.814	1419.1	517.21	-63.308	1446.7	181.12	-32.439	1738.8	357.47	43.558	971.31	466.21	70.059	973.03	232.96	-145.95	1000.6	364.75	-132.49	1002.3	271.55	-54.307	874.6	525.95	-4.8376	866.91	154.25	-53.261	1043.6	498.3	-25.047	1052.3	187.03	-157.06	961.35	316.4	-149.15	699.55	508.27	-110.78	578.3	479.99	-173.44	613.24	487.91	-77.1	665.57	502.82	-183.98	500.88	469.68	-198.27	511.29	342.05	-330.35	368.53	474.71	-306.44	284.87	449.49	-367.7	301.74	464.41	-268.05	351.77	461.64	-449.33	152.38	422.73	-416.37	156.12	345.02	-511.7	134.84	372.93	-507.94	105.88	345.84	-514.31	108.41	406.55	NaN	NaN	NaN	-335.6	43.682	332.54	-273.1	44.426	380.51	61.189	660.39	172.21	177.22	618.05	199.86	114.66	589.2	193.33	128.53	688.83	173.5	172.74	509.43	211.81	175.36	510.68	337.01	186.49	320.25	211.21	282.58	265.94	231.07	211.67	252.23	226.61	250.43	333.98	215.94	303.28	100.99	238.68	325.49	118.87	324.9	267.59	59.092	293.1	297.75	35.75	324.89	285.01	35.125	262.43	444.63	96.452	217.82	465.39	117.22	329.53	508.78	160.14	275.71	-110.81	1479.8	349.26	-162.93	1195	356.4
320	1.3292	79.97	1183.4	339.44	-23.875	1418.9	516.46	-57.616	1446.2	180.37	-27.134	1738.5	356.84	50.204	970.76	465.83	76.733	972.84	232.59	-139.24	1000.4	364.28	-125.68	1002.1	271.09	-48.014	874.07	525.35	2.1189	866.91	153.69	-46.515	1043.1	497.89	-18.404	1052.1	186.59	-150.41	961.21	315.84	-143.35	699.35	507.84	-105.05	577.91	479.8	-167.65	613.02	487.41	-71.231	665.17	502.52	-178.45	500.75	469.56	-192.38	510.93	341.88	-325.91	369.68	474.67	-302.82	285.71	449.72	-363.89	303.2	464.5	-263.81	352.35	461.8	-446.97	154.42	423.43	-413.72	157.66	345.63	-509.02	137.9	373.41	-505.99	109.15	346.17	-512.38	111.47	406.84	NaN	NaN	NaN	-335.17	43.8	332.7	-272.97	44.312	380.56	67.903	660.6	171.98	183.79	618.08	200.04	121.22	589.31	193.25	135.29	688.96	173.59	178.98	509.33	211.8	180.93	510.39	336.93	191.29	320.08	211	286.8	264.91	231.35	215.8	251.81	226.44	255.33	333.25	216.16	305.55	99.966	238.73	327.9	117.42	325.11	269.13	59.468	293.23	298.72	35.327	324.94	285.94	35.157	262.51	446.67	93.227	218.24	467.65	113.38	329.92	511.85	155.75	276.27	-105.05	1479.3	348.51	-156.5	1194.4	355.97
321	1.3333	86.475	1183.3	338.77	-17.931	1418.7	515.7	-51.916	1445.8	179.61	-21.825	1738.3	356.21	56.909	970.26	465.43	83.425	972.72	232.2	-132.5	1000.2	363.82	-118.86	1002.1	270.65	-41.625	873.56	524.75	9.0992	867	153.11	-39.71	1042.7	497.49	-11.736	1052	186.16	-143.73	961.15	315.29	-137.42	699.15	507.41	-99.174	577.52	479.6	-161.72	612.78	486.92	-65.23	664.77	502.2	-172.76	500.61	469.45	-186.35	510.56	341.72	-321.31	370.85	474.65	-299.04	286.57	449.99	-359.9	304.7	464.63	-259.42	352.93	461.97	-444.46	156.51	424.18	-410.92	159.22	346.29	-506.15	141.06	373.94	-503.86	112.55	346.52	-510.3	114.66	407.18	NaN	NaN	NaN	-334.72	43.936	332.88	-272.83	44.196	380.61	74.586	660.88	171.73	190.31	618.13	200.19	127.73	589.48	193.14	142.02	689.13	173.66	185.18	509.28	211.76	186.42	510.15	336.83	196.08	319.98	210.76	290.99	263.95	231.6	219.92	251.46	226.25	260.19	332.6	216.34	307.78	99.034	238.75	330.25	116.07	325.29	270.63	59.945	293.34	299.62	35.007	324.97	286.82	35.285	262.57	448.63	90.039	218.65	469.81	109.59	330.29	514.85	151.38	276.82	-99.282	1478.9	347.74	-150.03	1193.9	355.54
322	1.3375	93.007	1183.3	338.1	-11.984	1418.6	514.93	-46.206	1445.4	178.84	-16.515	1738.2	355.58	63.665	969.81	465.02	90.127	972.67	231.8	-125.71	1000.1	363.38	-112.04	1002.1	270.23	-35.144	873.06	524.14	16.091	867.18	152.52	-32.852	1042.3	497.1	-5.0513	1052	185.74	-137.02	961.16	314.76	-131.35	698.93	506.99	-93.139	577.14	479.4	-155.64	612.53	486.43	-59.093	664.38	501.87	-166.89	500.46	469.36	-180.17	510.17	341.58	-316.51	372.02	474.64	-295.09	287.44	450.3	-355.74	306.21	464.78	-254.86	353.52	462.16	-441.78	158.64	424.99	-407.97	160.82	347	-503.07	144.32	374.53	-501.55	116.09	346.9	-508.04	117.98	407.57	NaN	NaN	NaN	-334.24	44.095	333.06	-272.7	44.076	380.66	81.238	661.22	171.45	196.8	618.23	200.31	134.19	589.7	193	148.72	689.35	173.69	191.33	509.29	211.68	191.83	509.96	336.69	200.85	319.97	210.5	295.14	263.08	231.83	224.01	251.2	226.04	265.03	332.03	216.49	309.94	98.192	238.75	332.55	114.81	325.44	272.09	60.507	293.44	300.45	34.785	324.98	287.66	35.496	262.61	450.51	86.904	219.05	471.88	105.86	330.65	517.77	147.03	277.34	-93.509	1478.6	346.95	-143.53	1193.3	355.12
323	1.3417	99.559	1183.4	337.41	-6.0369	1418.5	514.15	-40.488	1445.1	178.06	-11.201	1738.1	354.94	70.467	969.4	464.59	96.833	972.69	231.39	-118.89	1000.1	362.98	-105.23	1002.2	269.84	-28.573	872.57	523.53	23.081	867.45	151.92	-25.949	1041.9	496.72	1.642	1052	185.32	-130.29	961.25	314.26	-125.14	698.69	506.56	-86.943	576.74	479.19	-149.41	612.24	485.95	-52.817	663.99	501.52	-160.83	500.29	469.27	-173.83	509.77	341.45	-311.53	373.19	474.65	-290.95	288.32	450.63	-351.39	307.74	464.95	-250.11	354.1	462.38	-438.91	160.8	425.84	-404.85	162.43	347.76	-499.8	147.71	375.17	-499.04	119.77	347.3	-505.59	121.42	408.01	NaN	NaN	NaN	-333.73	44.284	333.26	-272.55	43.949	380.71	87.856	661.64	171.15	203.24	618.37	200.38	140.6	589.98	192.82	155.4	689.63	173.69	197.45	509.37	211.57	197.18	509.85	336.52	205.59	320.03	210.21	299.25	262.29	232.02	228.07	251.03	225.8	269.84	331.53	216.62	312.05	97.437	238.73	334.78	113.65	325.56	273.53	61.14	293.54	301.23	34.654	324.98	288.45	35.779	262.64	452.31	83.838	219.42	473.85	102.23	330.99	520.6	142.75	277.83	-87.732	1478.3	346.15	-136.99	1192.9	354.7
324	1.3458	106.13	1183.5	336.73	-0.089741	1418.5	513.36	-34.759	1444.8	177.27	-5.8845	1738.1	354.3	77.307	969.05	464.13	103.53	972.79	230.96	-112.05	1000.2	362.61	-98.437	1002.4	269.49	-21.917	872.09	522.92	30.056	867.83	151.3	-19.006	1041.6	496.35	8.3355	1052.1	184.91	-123.56	961.42	313.78	-118.79	698.41	506.13	-80.58	576.34	478.97	-143.02	611.92	485.47	-46.399	663.61	501.15	-154.58	500.09	469.18	-167.32	509.33	341.34	-306.34	374.36	474.68	-286.62	289.21	451.01	-346.84	309.28	465.15	-245.16	354.67	462.61	-435.84	163	426.73	-401.55	164.08	348.56	-496.31	151.2	375.87	-496.33	123.58	347.75	-502.95	125	408.51	NaN	NaN	NaN	-333.18	44.507	333.46	-272.39	43.811	380.75	94.439	662.12	170.81	209.64	618.57	200.41	146.97	590.32	192.6	162.04	689.96	173.65	203.54	509.52	211.42	202.49	509.82	336.31	210.29	320.18	209.89	303.31	261.58	232.17	232.09	250.94	225.54	274.6	331.1	216.7	314.08	96.769	238.68	336.94	112.58	325.65	274.92	61.828	293.62	301.96	34.608	324.97	289.21	36.122	262.64	454.03	80.856	219.76	475.73	98.696	331.3	523.32	138.55	278.3	-81.954	1478.1	345.35	-130.44	1192.5	354.29
325	1.35	112.7	1183.7	336.05	5.8556	1418.6	512.58	-29.02	1444.6	176.47	-0.56464	1738.1	353.66	84.177	968.75	463.65	110.22	972.97	230.51	-105.2	1000.3	362.27	-91.675	1002.7	269.16	-15.183	871.62	522.32	37.001	868.31	150.68	-12.033	1041.4	496	15.02	1052.3	184.52	-116.82	961.66	313.34	-112.3	698.11	505.69	-74.043	575.92	478.75	-136.47	611.57	484.99	-39.838	663.22	500.77	-148.12	499.85	469.11	-160.63	508.86	341.25	-300.93	375.53	474.72	-282.08	290.08	451.41	-342.09	310.83	465.38	-240	355.22	462.87	-432.57	165.24	427.66	-398.09	165.76	349.4	-492.61	154.82	376.62	-493.4	127.54	348.24	-500.09	128.73	409.06	NaN	NaN	NaN	-332.59	44.772	333.68	-272.23	43.662	380.8	100.99	662.67	170.44	216.01	618.84	200.38	153.3	590.73	192.34	168.65	690.36	173.56	209.61	509.73	211.23	207.77	509.87	336.07	214.95	320.4	209.54	307.32	260.95	232.29	236.05	250.93	225.25	279.32	330.74	216.75	316.05	96.183	238.62	339.03	111.62	325.7	276.28	62.555	293.68	302.63	34.639	324.95	289.94	36.512	262.63	455.67	77.97	220.09	477.51	95.291	331.59	525.93	134.45	278.73	-76.177	1477.9	344.53	-123.86	1192.1	353.89
